<svg width="18" height="15" viewBox="0 0 18 15" fill="none" xmlns="http://www.w3.org/2000/svg">
<path d="M15.3461 3.96681C15.1164 3.80859 14.821 3.73242 14.5243 3.75489C14.2275 3.77735 13.9534 3.89663 13.7617 4.08675L9.00002 8.84776L4.23827 4.08683C4.04712 3.89597 3.77281 3.7762 3.47569 3.75388C3.17858 3.73156 2.88299 3.80851 2.65396 3.9678C2.42493 4.1271 2.28121 4.35568 2.25442 4.60328C2.22764 4.85088 2.31998 5.0972 2.51113 5.28806L8.13645 10.9133C8.24198 11.0188 8.37403 11.1036 8.52326 11.1618C8.67248 11.2201 8.83525 11.2502 9.00002 11.2502C9.16479 11.2502 9.32755 11.2201 9.47678 11.1618C9.62601 11.1036 9.75806 11.0188 9.86359 10.9133L15.4889 5.28798C15.68 5.09693 15.7723 4.85048 15.7455 4.60277C15.7187 4.35506 15.5751 4.12633 15.3461 3.96681Z" fill="#1B2535"/>
</svg>
