<svg width="21" height="21" viewBox="0 0 21 21" fill="none" xmlns="http://www.w3.org/2000/svg">
<path d="M19.5661 4.04775C19.3489 3.57525 18.8889 3.28125 18.3658 3.28125H2.63422C2.11118 3.28125 1.65115 3.57525 1.43328 4.04775C1.21737 4.51631 1.29218 5.05181 1.62818 5.44425L1.62884 5.44491L7.87503 12.7122V18.375C7.87503 18.6172 8.00825 18.8396 8.22153 18.9538C8.31865 19.0057 8.42497 19.0312 8.53128 19.0312C8.65859 19.0312 8.78525 18.9938 8.8955 18.921L12.833 16.296C13.0154 16.1739 13.125 15.9692 13.125 15.75V12.7122L19.3719 5.44491C19.7079 5.05181 19.7827 4.51631 19.5661 4.04775Z" fill="#1B2535"/>
</svg>
