<svg width="20" height="20" viewBox="0 0 20 20" fill="none" xmlns="http://www.w3.org/2000/svg">
<path d="M11.2987 16.1111H8.62506C8.09033 16.1111 7.632 16.7222 7.93756 17.2569C8.39589 17.9444 9.15978 18.4028 10.0001 18.4028C10.8403 18.4028 11.6042 17.9444 11.9862 17.2569C12.2917 16.7222 11.9098 16.1111 11.2987 16.1111Z" fill="#1B2535"/>
<path d="M17.4861 13.5903L17.1806 13.2083C15.9584 11.6042 15.3473 9.69444 15.3473 7.70833V7.17361C15.3473 4.42361 13.3611 1.97917 10.6111 1.67361C7.40281 1.29167 4.65281 3.8125 4.65281 6.94444V7.70833C4.65281 9.69444 4.0417 11.6042 2.81948 13.2083L2.51392 13.5903C2.36114 13.7431 2.28476 14.0486 2.36114 14.2014C2.59031 14.8889 3.20142 15.3472 3.88892 15.3472H16.1111C16.7986 15.3472 17.4098 14.8889 17.5625 14.2014C17.6389 13.9722 17.5625 13.7431 17.4861 13.5903Z" fill="#1B2535"/>
</svg>
