<svg width="18" height="18" viewBox="0 0 18 18" fill="none" xmlns="http://www.w3.org/2000/svg">
<path d="M15.9352 10.375H10.375V15.9352C10.375 16.6613 9.76055 17.25 9 17.25C8.23945 17.25 7.625 16.6613 7.625 15.9352V10.375H2.06484C1.33867 10.375 0.75 9.76055 0.75 9C0.75 8.23945 1.33867 7.625 2.06484 7.625H7.625V2.06484C7.625 1.33867 8.23945 0.75 9 0.75C9.76055 0.75 10.375 1.33867 10.375 2.06484V7.625H15.9352C16.6613 7.625 17.25 8.23945 17.25 9C17.25 9.76055 16.6613 10.375 15.9352 10.375Z" fill="white"/>
</svg>
